# AST/ASF file generated using VICON BodyLanguage
# -----------------------------------------------
:version 1.10
:name VICON
:units
  mass 1.0
  length 0.45
  angle deg
:documentation
   .ast/.asf automatically generated from VICON data using
   VICON BodyBuilder and BodyLanguage model FoxedUp or BRILLIANT.MOD
:root
   order TX TY TZ RX RY RZ
   axis XYZ
   position 0 0 0  
   orientation 0 0 0 
:bonedata
  begin
     id 1 
     name lhipjoint
     direction 0.693937 -0.600361 0.397515 
     length 2.37164 
     axis 0 0 0  XYZ
  end
  begin
     id 2 
     name lfemur
     direction 0.34202 -0.939693 0  
     length 6.18497  
     axis 0 0 20  XYZ
    dof rx ry rz
    limits (-160.0 20.0)
           (-70.0 70.0)
           (-60.0 70.0)
  end
  begin
     id 3 
     name ltibia
     direction 0.34202 -0.939693 0   
     length 6.91601   
     axis 0 0 20   XYZ
    dof rx
    limits (-10.0 170.0)
  end
  begin
     id 4 
     name lfoot
     direction 0.0978718 -0.2689 0.958182   
     length 1.81453   
     axis -90 7.62852e-016 20   XYZ
    dof rx rz
    limits (-45.0 90.0)
           (-70.0 20.0)
  end
  begin
     id 5 
     name ltoes
     direction 1.53569e-011 -4.21951e-011 1   
     length 0.912052   
     axis -90 7.62852e-016 20   XYZ
    dof rx
    limits (-90.0 20.0)
  end
  begin
     id 6 
     name rhipjoint
     direction -0.643996 -0.637876 0.422354   
     length 2.23216  
     axis 0 0 0  XYZ 
  end
  begin
     id 7 
     name rfemur
     direction -0.34202 -0.939693 0   
     length 6.15404   
     axis 0 0 -20   XYZ
    dof rx ry rz
    limits (-160.0 20.0)
           (-70.0 70.0)
           (-70.0 60.0)
  end
  begin
     id 8 
     name rtibia
     direction -0.34202 -0.939693 0   
     length 6.86744   
     axis 0 0 -20   XYZ
    dof rx
    limits (-10.0 170.0)
 end
 begin
     id 9 
     name rfoot
     direction -0.118701 -0.326127 0.937844   
     length 1.9243  
     axis -90 -7.62852e-016 -20   XYZ
    dof rx rz
    limits (-45.0 90.0)
           (-20.0 70.0)
  end
  begin
     id 10 
     name rtoes
     direction -1.5356e-011 -4.2181e-011 1   
     length 0.958865   
     axis -90 -7.62852e-016 -20   XYZ
    dof rx
    limits (-90.0 20.0)
  end
  begin
     id 11 
     name lowerback
     direction 0.0310826 0.968686 -0.246334   
     length 2.00021   
     axis 0 0 0   XYZ
    dof rx ry rz
    limits (-20.0 45.0)
           (-30.0 30.0)
           (-30.0 30.0)
  end
  begin
     id 12 
     name upperback
     direction -0.0152834 0.999474 -0.0286152   
     length 2.03728   
     axis 0 0 0   XYZ
    dof rx ry rz
    limits (-20.0 45.0)
           (-30.0 30.0)
           (-30.0 30.0)
  end
  begin
     id 13 
     name thorax
     direction -0.0323701 0.996236 0.0804149   
     length 2.16   
     axis 0 0 0   XYZ
    dof rx ry rz
    limits (-20.0 45.0)
           (-30.0 30.0)
           (-30.0 30.0)
  end
  begin
     id 14 
     name lowerneck
     direction 0.0307935 0.982251 0.185027   
     length 1.43558   
     axis 0 0 0   XYZ
    dof rx ry rz
    limits (-20.0 45.0)
           (-30.0 30.0)
           (-30.0 30.0)
  end
  begin
     id 15 
     name upperneck
     direction -0.0927153 0.994775 0.0427454   
     length 1.44603   
     axis 0 0 0   XYZ
    dof rx ry rz
    limits (-20.0 45.0)
           (-30.0 30.0)
           (-30.0 30.0)
  end
  begin
     id 16
     name head
     direction -0.0341265 0.999406 -0.00472033  
     length 1.45931  
     axis 0 0 0   XYZ
    dof rx ry rz
    limits (-20.0 45.0)
           (-30.0 30.0)
           (-30.0 30.0)
  end
  begin
     id 17 
     name lclavicle
     direction 0.820755 0.555306 -0.134151  
     length 2.66075  
     axis 0 0 0   XYZ
    dof ry rz
    limits (-20.0 10.0)
           (0.0 20.0)
  end
  begin
     id 18 
     name lhumerus
     direction 1 -4.48971e-011 5.24853e-027   
     length 5.0546   
     axis -180 -30 -90   XYZ
    dof rx ry rz
    limits (-60.0 90.0)
           (-90.0 90.0)
           (-90.0 90.0)
  end
  begin
     id 19
     name lradius
     direction 1 -4.48971e-011 2.76575e-028   
     length 3.39013   
     axis -180 -30 -90   XYZ
    dof rx
    limits (-10.0 170.0)
  end
  begin
     id 20
     name lwrist
     direction 1 -4.48939e-011 -2.27826e-027   
     length 1.69507   
     axis 2.17013e-015 90 90   XYZ
    dof ry
    limits (-180.0 0.0)
 end
  begin
     id 21 
     name lhand
     direction 1 -4.49009e-011 -4.55652e-027   
     length 0.572425   
     axis 2.90745e-015 90 90   XYZ
    dof rx rz
    limits (-90.0 90.0)
           (-45.0 45.0)
  end
  begin
     id 22 
     name lfingers
     direction 1 -4.48955e-011 -9.11303e-027   
     length 0.461504   
     axis 5.81489e-015 90 90   XYZ
    dof rx
    limits (0.0 90.0)
  end
  begin
     id 23
     name lthumb
     direction 0.707107 -6.34929e-011 0.707107   
     length 0.66263   
     axis -90 45 2.85299e-015   XYZ
    dof rx rz
    limits (-45.0 45.0)
           (-45.0 45.0)
  end
  begin
     id 24 
     name rclavicle
     direction -0.754477 0.632921 -0.173712   
     length 2.73081  
     axis 0 0 0   XYZ 
    dof ry rz
    limits (-10.0 20.0)
           (-20.0 0.0)
  end
  begin
     id 25 
     name rhumerus
     direction -1 -4.48969e-011 5.1496e-027  
     length 5.0701   
     axis -180 30 90   XYZ
    dof rx ry rz
    limits (-90.0 60.0)
           (-90.0 90.0)
           (-90.0 90.0)
  end
  begin
     id 26 
     name rradius
     direction -1 -4.48967e-011 -7.15624e-028   
     length 3.14957   
     axis -180 30 90   XYZ
    dof rx
    limits (-10.0 170.0)
  end
  begin
     id 27 
     name rwrist
     direction -1 -4.48938e-011 -2.27826e-027   
     length 1.57479   
     axis 2.17013e-015 -90 -90   XYZ
    dof ry
    limits (-180.0 0.0)
  end
  begin
     id 28
     name rhand
     direction -1 -4.49008e-011 -4.55652e-027   
     length 0.718191   
     axis 2.90745e-015 -90 -90   XYZ
    dof rx rz
    limits (-90.0 90.0)
           (-45.0 45.0)
  end
  begin
     id 29
     name rfingers
     direction -1 -4.48953e-011 -9.11303e-027   
     length 0.579024   
     axis 5.81489e-015 -90 -90   XYZ
    dof rx
    limits (0.0 90.0)
  end
  begin
     id 30
     name rthumb
     direction -0.707107 -6.34937e-011 0.707107   
     length 0.831366   
     axis -90 -45 -2.85299e-015   XYZ
    dof rx rz
    limits (-45.0 45.0)
           (-45.0 45.0)
  end
:hierarchy
  begin
    root lhipjoint rhipjoint lowerback
    lhipjoint lfemur
    lfemur ltibia
    ltibia lfoot
    lfoot ltoes
    rhipjoint rfemur
    rfemur rtibia
    rtibia rfoot
    rfoot rtoes
    lowerback upperback
    upperback thorax
    thorax lowerneck lclavicle rclavicle
    lowerneck upperneck
    upperneck head
    lclavicle lhumerus
    lhumerus lradius
    lradius lwrist
    lwrist lhand lthumb
    lhand lfingers
    rclavicle rhumerus
    rhumerus rradius
    rradius rwrist
    rwrist rhand rthumb
    rhand rfingers
  end

#!OML:ASF H:\Male1\Project 1\Capture day 1\Session 1\Male1.ASF
:FULLY-SPECIFIED
:DEGREES
61
root -25.8972 15.0061 -2.60344 -2.22277 -1.61722 1.66157
lowerback 4.85178 1.78093 -0.138241
upperback 5.54173 2.40566 -1.72876
thorax 3.06284 1.23582 -1.75231
lowerneck -7.67395 4.50258 5.7301
upperneck 40.8433 4.31688 3.1921
head 15.8756 3.13224 1.01749
rclavicle -3.72721e-015 2.38542e-015
rhumerus -35.752 1.67867 -86.2773
rradius 35.5751
rwrist -19.8253
rhand -18.7146 0.822123
rfingers 7.12502
rthumb 7.58061 -29.022
lclavicle -3.72721e-015 2.38542e-015
lhumerus -35.6804 -8.62696 86.9991
lradius 44.642
lwrist 12.0217
lhand -16.8934 15.9724
lfingers 7.12502
lthumb 9.33824 45.7456
rfemur -5.7431 15.6252 24.6796
rtibia 30.7628
rfoot -36.5804 -26.6743
rtoes -3.49861
lfemur -9.6938 -20.3257 -22.7599
ltibia 31.7165
lfoot -21.6101 21.5907
ltoes -11.7493
62
root -25.8995 15.008 -2.59737 -2.23251 -1.63734 1.52246
lowerback 4.88484 1.79537 0.0584145
upperback 5.49672 2.42852 -1.71813
thorax 3.00612 1.2537 -1.85365
lowerneck -7.6649 4.48594 5.81886
upperneck 40.8615 4.27958 3.17155
head 15.888 3.12794 0.988145
rclavicle -1.42131e-014 -5.96354e-015
rhumerus -35.8939 1.64538 -86.2856
rradius 35.59
rwrist -19.8939
rhand -18.9139 0.882993
rfingers 7.12502
rthumb 7.38822 -28.968
lclavicle -1.42131e-014 -5.96354e-015
lhumerus -35.9392 -8.7437 86.9601
lradius 45.0496
lwrist 12.1077
lhand -17.4337 15.4268
lfingers 7.12502
lthumb 8.81688 45.2227
rfemur -5.65768 15.7167 24.8561
rtibia 30.7113
rfoot -36.5351 -26.6959
rtoes -3.43433
lfemur -9.69723 -20.083 -22.5826
ltibia 31.7715
lfoot -21.5978 21.3899
ltoes -11.9563
63
root -25.9004 15.0054 -2.59161 -2.27068 -1.61767 1.52269
lowerback 4.95437 1.84256 0.200934
upperback 5.44521 2.49495 -1.77683
thorax 2.92517 1.29276 -1.99857
lowerneck -7.66623 4.4195 5.97935
upperneck 40.8911 4.17276 3.09485
head 15.913 3.09902 0.91244
rclavicle -1.2424e-015 -1.13307e-014
rhumerus -36.0656 1.36451 -86.2712
rradius 35.6106
rwrist -19.8744
rhand -19.2524 0.84312
rfingers 7.12502
rthumb 7.06154 -29.0191
lclavicle -1.2424e-015 -1.13307e-014
lhumerus -36.1644 -8.88024 86.8818
lradius 45.3227
lwrist 12.0267
lhand -16.5904 15.5399
lfingers 7.12502
lthumb 9.63059 45.2998
rfemur -5.55141 15.655 24.8557
rtibia 30.6555
rfoot -36.4115 -26.6522
rtoes -3.70092
lfemur -9.68377 -19.7886 -22.5687
ltibia 31.8494
lfoot -21.589 21.1193
ltoes -12.0328
64
root -25.902 15.0013 -2.58835 -2.32281 -1.62236 1.55668
lowerback 5.0694 1.92668 0.323101
upperback 5.39224 2.61003 -1.84717
thorax 2.81959 1.35545 -2.14713
lowerneck -7.70925 4.37366 6.12019
upperneck 40.8531 4.04105 3.1693
head 15.9074 3.07616 0.900664
rclavicle 1.75427e-014 -7.95139e-015
rhumerus -36.2471 0.958903 -86.2197
rradius 35.6378
rwrist -19.7972
rhand -19.6855 0.799358
rfingers 7.12502
rthumb 6.64344 -29.0764
lclavicle 1.75427e-014 -7.95139e-015
lhumerus -36.3061 -9.02418 86.7975
lradius 45.4168
lwrist 11.9002
lhand -16.9555 15.4082
lfingers 7.12502
lthumb 9.27824 45.184
rfemur -5.46898 15.5751 24.8188
rtibia 30.6167
rfoot -36.2877 -26.5853
rtoes -4.02169
lfemur -9.67696 -19.5511 -22.5862
ltibia 31.9353
lfoot -21.584 20.9337
ltoes -12.0588
65
root -25.9044 14.9985 -2.58601 -2.34746 -1.61249 1.60037
lowerback 5.1692 1.9438 0.332172
upperback 5.33087 2.63137 -1.85383
thorax 2.70171 1.36563 -2.16452
lowerneck -7.70393 4.36833 6.14383
upperneck 40.8292 4.03921 3.14565
head 15.8951 3.07661 0.885228
rclavicle 1.98785e-016 -1.45113e-014
rhumerus -36.3873 0.763035 -86.136
rradius 35.6416
rwrist -19.6903
rhand -18.9421 0.637483
rfingers 7.12502
rthumb 7.36102 -29.2145
lclavicle 1.98785e-016 -1.45113e-014
lhumerus -36.4199 -8.96718 86.7403
lradius 45.4309
lwrist 11.8323
lhand -17.4185 15.3268
lfingers 7.12502
lthumb 8.83151 45.122
rfemur -5.44474 15.4484 24.7604
rtibia 30.6089
rfoot -36.1913 -26.5324
rtoes -4.33856
lfemur -9.72798 -19.1348 -22.5763
ltibia 32.0171
lfoot -21.435 20.6522
ltoes -12.6144
66
root -25.9052 14.9943 -2.58063 -2.3677 -1.5273 1.70656
lowerback 5.20805 1.88668 0.231979
upperback 5.28333 2.55059 -1.82471
thorax 2.6211 1.32057 -2.07879
lowerneck -7.75201 4.40063 6.16286
upperneck 40.8941 4.17251 2.90886
head 15.9494 3.10567 0.803935
rclavicle 7.10655e-015 1.09332e-014
rhumerus -36.4951 0.862445 -86.0611
rradius 35.6478
rwrist -19.7082
rhand -19.6628 0.61457
rfingers 7.12502
rthumb 6.66532 -29.2605
lclavicle 7.10655e-015 1.09332e-014
lhumerus -36.6151 -8.6542 86.6743
lradius 45.4501
lwrist 11.6432
lhand -17.3982 14.8841
lfingers 7.12502
lthumb 8.85113 44.6785
rfemur -5.39889 15.3135 24.6337
rtibia 30.6116
rfoot -36.1551 -26.5221
rtoes -4.50328
lfemur -9.77961 -18.7006 -22.6418
ltibia 32.1101
lfoot -21.2961 20.277
ltoes -13.1876
67
root -25.9039 14.9904 -2.57031 -2.42681 -1.40489 1.88477
lowerback 5.20576 1.82551 0.0805303
upperback 5.25453 2.46405 -1.82078
thorax 2.58208 1.27189 -1.98822
lowerneck -7.86152 4.45925 6.208
upperneck 40.8844 4.2789 2.81316
head 15.9773 3.14472 0.774463
rclavicle -2.85753e-014 7.95139e-016
rhumerus -36.5931 0.913661 -85.9875
rradius 35.5972
rwrist -19.7113
rhand -19.9201 0.576209
rfingers 7.12502
rthumb 6.41699 -29.3066
lclavicle -2.85753e-014 7.95139e-016
lhumerus -36.9196 -8.28825 86.5645
lradius 45.4784
lwrist 11.3688
lhand -17.2974 14.7425
lfingers 7.12502
lthumb 8.9484 44.5328
rfemur -5.26365 15.2018 24.4397
rtibia 30.5954
rfoot -35.9783 -26.7225
rtoes -5.44499
lfemur -9.78799 -18.2574 -22.8027
ltibia 32.2457
lfoot -21.3268 19.7226
ltoes -13.2122
68
root -25.8997 14.9897 -2.56204 -2.46174 -1.2454 2.08886
lowerback 5.2194 1.75199 -0.0578049
upperback 5.18981 2.36086 -1.83238
thorax 2.49806 1.21539 -1.92162
lowerneck -7.86774 4.53381 6.17804
upperneck 40.8169 4.3813 2.85979
head 15.942 3.18903 0.813677
rclavicle 1.2424e-014 -2.52457e-014
rhumerus -36.7126 0.897978 -85.9142
rradius 35.5065
rwrist -19.7
rhand -19.7085 0.575498
rfingers 7.12502
rthumb 6.62125 -29.301
lclavicle 1.2424e-014 -2.52457e-014
lhumerus -37.1912 -7.94324 86.4662
lradius 45.3752
lwrist 11.058
lhand -17.1839 14.805
lfingers 7.12502
lthumb 9.05791 44.5905
rfemur -5.17009 14.9254 24.1596
rtibia 30.5669
rfoot -35.8488 -26.707
rtoes -5.9369
lfemur -9.86608 -17.8032 -22.9932
ltibia 32.4334
lfoot -21.2406 19.156
ltoes -13.6097
69
root -25.8939 14.9924 -2.55887 -2.40622 -1.04194 2.14454
lowerback 5.22077 1.65828 -0.00814894
upperback 5.09839 2.23567 -1.80081
thorax 2.39849 1.15288 -1.91494
lowerneck -7.9068 4.60813 6.11211
upperneck 40.739 4.50424 2.87092
head 15.9084 3.232 0.847545
rclavicle -7.00716e-015 1.07344e-014
rhumerus -36.8487 0.99718 -85.8473
rradius 35.4915
rwrist -19.8028
rhand -19.224 0.523576
rfingers 7.12502
rthumb 7.08891 -29.3377
lclavicle -7.00716e-015 1.07344e-014
lhumerus -37.3482 -7.6755 86.4005
lradius 45.0669
lwrist 10.7218
lhand -17.6492 14.4979
lfingers 7.12502
lthumb 8.60888 44.3024
rfemur -5.21875 14.44 23.9603
rtibia 30.5342
rfoot -35.7228 -26.5479
rtoes -6.23755
lfemur -10.1397 -17.1474 -22.9716
ltibia 32.687
lfoot -20.8364 18.5419
ltoes -15.0106
70
root -25.8889 14.9946 -2.55688 -2.3997 -0.823671 2.15754
lowerback 5.29469 1.5945 0.102809
upperback 5.0404 2.15241 -1.78002
thorax 2.29754 1.11362 -1.95649
lowerneck -8.09086 4.6978 6.17646
upperneck 40.6319 4.62838 2.83136
head 15.903 3.28823 0.841332
rclavicle 4.49005e-014 -4.73108e-014
rhumerus -36.9919 1.03295 -85.7738
rradius 35.5137
rwrist -19.9184
rhand -18.8606 0.490543
rfingers 7.12502
rthumb 7.43972 -29.3586
lclavicle 4.49005e-014 -4.73108e-014
lhumerus -37.4548 -7.51851 86.2957
lradius 44.6813
lwrist 10.324
lhand -17.6832 14.8744
lfingers 7.12502
lthumb 8.57607 44.6802
rfemur -5.20586 14.042 23.8483
rtibia 30.4974
rfoot -35.2767 -26.6533
rtoes -7.47582
lfemur -10.4499 -16.2665 -22.8699
ltibia 33.023
lfoot -20.4973 17.6014
ltoes -15.8423
71
root -25.8847 14.9932 -2.55617 -2.52075 -0.556686 2.24882
lowerback 5.54806 1.55014 0.140947
upperback 4.99156 2.09187 -1.80699
thorax 2.10625 1.08404 -2.01232
lowerneck -7.99944 4.57503 5.94125
upperneck 40.3669 4.50487 2.8488
head 15.7257 3.20247 0.857163
rclavicle 2.28105e-014 -4.37326e-015
rhumerus -37.1759 0.901112 -85.7029
rradius 35.5073
rwrist -19.9507
rhand -18.9157 0.539151
rfingers 7.12502
rthumb 7.38654 -29.3119
lclavicle 2.28105e-014 -4.37326e-015
lhumerus -37.5804 -7.40203 86.1406
lradius 44.2418
lwrist 9.75939
lhand -18.9725 13.715
lfingers 7.12502
lthumb 7.3317 43.5679
rfemur -5.01765 13.8752 23.7462
rtibia 30.4704
rfoot -35.0866 -26.8747
rtoes -8.31886
lfemur -10.6645 -15.5131 -22.8846
ltibia 33.4269
lfoot -20.3051 16.5875
ltoes -15.8881
72
root -25.8794 14.9891 -2.55684 -2.62718 -0.283433 2.24624
lowerback 5.81336 1.45979 0.182439
upperback 4.91706 1.96896 -1.75823
thorax 1.87652 1.02145 -1.98991
lowerneck -7.77949 4.72825 6.07466
upperneck 40.0481 4.829 2.58647
head 15.528 3.32348 0.752954
rclavicle -1.41634e-015 -6.36111e-015
rhumerus -37.3583 0.865964 -85.5868
rradius 35.4759
rwrist -19.7909
rhand -19.0366 0.635223
rfingers 7.12502
rthumb 7.26987 -29.2199
lclavicle -1.41634e-015 -6.36111e-015
lhumerus -37.7407 -7.19789 86.0179
lradius 43.6884
lwrist 9.19898
lhand -19.8018 13.337
lfingers 7.12502
lthumb 6.53117 43.2163
rfemur -4.87314 13.6689 23.7382
rtibia 30.4772
rfoot -34.9101 -27.0347
rtoes -9.05494
lfemur -10.9438 -14.7365 -22.7639
ltibia 33.877
lfoot -20.0508 15.54
ltoes -16.4267
73
root -25.8726 14.9854 -2.5568 -2.67212 -0.0429744 2.26644
lowerback 5.97654 1.33868 0.106461
upperback 4.85198 1.80122 -1.65855
thorax 1.70626 0.932592 -1.84334
lowerneck -8.04592 4.75923 6.02834
upperneck 39.8825 4.92668 2.42491
head 15.5097 3.33446 0.710299
rclavicle -5.64051e-015 -7.7526e-015
rhumerus -37.4668 1.03954 -85.4262
rradius 35.3954
rwrist -19.5605
rhand -18.8347 0.737223
rfingers 7.12502
rthumb 7.46469 -29.1111
lclavicle -5.64051e-015 -7.7526e-015
lhumerus -37.8478 -6.82213 85.9205
lradius 43.0364
lwrist 8.66151
lhand -20.0871 13.4444
lfingers 7.12502
lthumb 6.25572 43.332
rfemur -4.81126 13.4133 23.6628
rtibia 30.4662
rfoot -34.749 -27.0709
rtoes -9.42772
lfemur -11.3783 -13.7878 -22.61
ltibia 34.4353
lfoot -19.9174 14.3589
ltoes -17.8038
74
root -25.8614 14.9857 -2.55518 -2.73364 0.221597 2.47667
lowerback 6.10159 1.23951 -0.0978375
upperback 4.84127 1.65911 -1.64228
thorax 1.61442 0.855458 -1.70926
lowerneck -8.22 4.90064 6.18312
upperneck 39.652 5.19943 2.13995
head 15.4563 3.43278 0.603059
rclavicle -3.47873e-016 -1.10325e-014
rhumerus -37.5088 1.26026 -85.325
rradius 35.2883
rwrist -19.5636
rhand -18.786 0.804499
rfingers 7.12502
rthumb 7.51176 -29.0421
lclavicle -3.47873e-016 -1.10325e-014
lhumerus -37.8019 -6.44118 85.8083
lradius 42.2717
lwrist 8.07653
lhand -20.0098 13.7401
lfingers 7.12502
lthumb 6.33033 43.6255
rfemur -4.6556 13.1718 23.3541
rtibia 30.3185
rfoot -34.6482 -27.0988
rtoes -9.61214
lfemur -11.8893 -12.8841 -22.6983
ltibia 35.2265
lfoot -20.0482 13.2757
ltoes -19.9312
